# xmcd
#
# Track frame offsets: 
#        150
#        16957
#        35007
#        55644
#        77627
#        93925
#        113595
#        132240
#        149227
#        166215
#        179632
#        198407
#        218000
#        233970
#        249345
#
# Disc length: 3550 seconds
#
# Revision: 3
# Processed by: cddbd v1.5.2PL0 Copyright (c) Steve Scherf et al.
# Submitted via: ExactAudioCopyFreeDBPlugin 1.0
#
DISCID=cc0ddc0f
DTITLE=Various Artist - Ciao Italia Vol2 CD2
DYEAR=2003
DGENRE=Italo
TTITLE0=Alan Sorrenti - Tu sei l'unica Donna per me
TTITLE1=Vasco Rossi - Cosa Succede in Citta
TTITLE2=Annalisa Minetti - Se tu mi Ami
TTITLE3=Massimo di Cataldo - Senza di te
TTITLE4=Leda Battisti - Amami
TTITLE5=Andrea Miro - Il centro dei Pensieri
TTITLE6=Paola and Chiara - Amici come prima
TTITLE7=Spagna - Chiamami
TTITLE8=Enzo Belmonte - Se ritornerai
TTITLE9=Angelo Fabiani - Domani
TTITLE10=Giovanni Danieli - Se impari a Vivere
TTITLE11=Amedeo Minghi - La Ragione, l'amore
TTITLE12=Collage - Due ragazzi nel sole
TTITLE13=Miguel Bosé - Ti amero
TTITLE14=I Santo California - Tornerò
EXTD=
EXTT0=
EXTT1=
EXTT2=
EXTT3=
EXTT4=
EXTT5=
EXTT6=
EXTT7=
EXTT8=
EXTT9=
EXTT10=
EXTT11=
EXTT12=
EXTT13=
EXTT14=
PLAYORDER=
